TITLE ""
FILE "P1Q_t_0101-0109.mp3" MP3
  TRACK 01 AUDIO
    TITLE "P1Q_t_0101-0109_01"
    INDEX 01 00:00:00
  TRACK 02 AUDIO
    TITLE "P1Q_t_0101-0109_02"
    INDEX 01 00:01:49
  TRACK 03 AUDIO
    TITLE "P1Q_t_0101-0109_03"
    INDEX 01 00:02:21
  TRACK 04 AUDIO
    TITLE "P1Q_t_0101-0109_04"
    INDEX 01 00:03:26
  TRACK 05 AUDIO
    TITLE "P1Q_t_0101-0109_05"
    INDEX 01 00:03:71
  TRACK 06 AUDIO
    TITLE "P1Q_t_0101-0109_06"
    INDEX 01 00:05:04
  TRACK 07 AUDIO
    TITLE "P1Q_t_0101-0109_07"
    INDEX 01 00:05:27
  TRACK 08 AUDIO
    TITLE "P1Q_t_0101-0109_08"
    INDEX 01 00:07:44
  TRACK 09 AUDIO
    TITLE "P1Q_t_0101-0109_09"
    INDEX 01 00:07:63
  TRACK 10 AUDIO
    TITLE "P1Q_t_0101-0109_10"
    INDEX 01 00:12:06
  TRACK 11 AUDIO
    TITLE "P1Q_t_0101-0109_11"
    INDEX 01 00:12:55
  TRACK 12 AUDIO
    TITLE "P1Q_t_0101-0109_12"
    INDEX 01 00:13:64
  TRACK 13 AUDIO
    TITLE "P1Q_t_0101-0109_13"
    INDEX 01 00:14:10
  TRACK 14 AUDIO
    TITLE "P1Q_t_0101-0109_14"
    INDEX 01 00:19:10
  TRACK 15 AUDIO
    TITLE "P1Q_t_0101-0109_15"
    INDEX 01 00:19:29
  TRACK 16 AUDIO
    TITLE "P1Q_t_0101-0109_16"
    INDEX 01 00:25:10
  TRACK 17 AUDIO
    TITLE "P1Q_t_0101-0109_17"
    INDEX 01 00:25:55
  TRACK 18 AUDIO
    TITLE "P1Q_t_0101-0109_18"
    INDEX 01 00:26:57
  TRACK 19 AUDIO
    TITLE "P1Q_t_0101-0109_19"
    INDEX 01 00:27:05
  TRACK 20 AUDIO
    TITLE "P1Q_t_0101-0109_20"
    INDEX 01 00:30:11
  TRACK 21 AUDIO
    TITLE "P1Q_t_0101-0109_21"
    INDEX 01 00:30:31
  TRACK 22 AUDIO
    TITLE "P1Q_t_0101-0109_22"
    INDEX 01 00:35:65
  TRACK 23 AUDIO
    TITLE "P1Q_t_0101-0109_23"
    INDEX 01 00:36:37
  TRACK 24 AUDIO
    TITLE "P1Q_t_0101-0109_24"
    INDEX 01 00:37:57
  TRACK 25 AUDIO
    TITLE "P1Q_t_0101-0109_25"
    INDEX 01 00:38:03
  TRACK 26 AUDIO
    TITLE "P1Q_t_0101-0109_26"
    INDEX 01 00:41:15
  TRACK 27 AUDIO
    TITLE "P1Q_t_0101-0109_27"
    INDEX 01 00:41:35
  TRACK 28 AUDIO
    TITLE "P1Q_t_0101-0109_28"
    INDEX 01 00:46:46
  TRACK 29 AUDIO
    TITLE "P1Q_t_0101-0109_29"
    INDEX 01 00:47:18
  TRACK 30 AUDIO
    TITLE "P1Q_t_0101-0109_30"
    INDEX 01 00:48:29
  TRACK 31 AUDIO
    TITLE "P1Q_t_0101-0109_31"
    INDEX 01 00:48:49
  TRACK 32 AUDIO
    TITLE "P1Q_t_0101-0109_32"
    INDEX 01 00:51:16
  TRACK 33 AUDIO
    TITLE "P1Q_t_0101-0109_33"
    INDEX 01 00:51:35
  TRACK 34 AUDIO
    TITLE "P1Q_t_0101-0109_34"
    INDEX 01 00:56:13
  TRACK 35 AUDIO
    TITLE "P1Q_t_0101-0109_35"
    INDEX 01 00:56:58
  TRACK 36 AUDIO
    TITLE "P1Q_t_0101-0109_36"
    INDEX 01 00:57:71
  TRACK 37 AUDIO
    TITLE "P1Q_t_0101-0109_37"
    INDEX 01 00:58:18
  TRACK 38 AUDIO
    TITLE "P1Q_t_0101-0109_38"
    INDEX 01 01:01:20
  TRACK 39 AUDIO
    TITLE "P1Q_t_0101-0109_39"
    INDEX 01 01:01:41
  TRACK 40 AUDIO
    TITLE "P1Q_t_0101-0109_40"
    INDEX 01 01:08:12
  TRACK 41 AUDIO
    TITLE "P1Q_t_0101-0109_41"
    INDEX 01 01:08:57
  TRACK 42 AUDIO
    TITLE "P1Q_t_0101-0109_42"
    INDEX 01 01:09:68
  TRACK 43 AUDIO
    TITLE "P1Q_t_0101-0109_43"
    INDEX 01 01:10:15
  TRACK 44 AUDIO
    TITLE "P1Q_t_0101-0109_44"
    INDEX 01 01:13:17
  TRACK 45 AUDIO
    TITLE "P1Q_t_0101-0109_45"
    INDEX 01 01:13:37
  TRACK 46 AUDIO
    TITLE "P1Q_t_0101-0109_46"
    INDEX 01 01:17:66
  TRACK 47 AUDIO
    TITLE "P1Q_t_0101-0109_47"
    INDEX 01 01:18:38
  TRACK 48 AUDIO
    TITLE "P1Q_t_0101-0109_48"
    INDEX 01 01:19:57
  TRACK 49 AUDIO
    TITLE "P1Q_t_0101-0109_49"
    INDEX 01 01:20:03
  TRACK 50 AUDIO
    TITLE "P1Q_t_0101-0109_50"
    INDEX 01 01:23:29
  TRACK 51 AUDIO
    TITLE "P1Q_t_0101-0109_51"
    INDEX 01 01:23:49
  TRACK 52 AUDIO
    TITLE "P1Q_t_0101-0109_52"
    INDEX 01 01:28:42
  TRACK 53 AUDIO
    TITLE "P1Q_t_0101-0109_53"
    INDEX 01 01:29:14
  TRACK 54 AUDIO
    TITLE "P1Q_t_0101-0109_54"
    INDEX 01 01:30:33
  TRACK 55 AUDIO
    TITLE "P1Q_t_0101-0109_55"
    INDEX 01 01:30:53
  TRACK 56 AUDIO
    TITLE "P1Q_t_0101-0109_56"
    INDEX 01 01:34:41
  TRACK 57 AUDIO
    TITLE "P1Q_t_0101-0109_57"
    INDEX 01 01:34:64
  TRACK 58 AUDIO
    TITLE "P1Q_t_0101-0109_58"
    INDEX 01 01:38:37
